<svg width="116" height="44" viewBox="0 0 116 44" fill="none" xmlns="http://www.w3.org/2000/svg">
<path d="M59.312 31C58.864 31 58.496 30.864 58.208 30.592C57.936 30.304 57.8 29.952 57.8 29.536V15.664C57.8 15.248 57.936 14.904 58.208 14.632C58.496 14.344 58.848 14.2 59.264 14.2H67.064C67.48 14.2 67.824 14.336 68.096 14.608C68.384 14.864 68.528 15.2 68.528 15.616C68.528 15.968 68.384 16.28 68.096 16.552C67.824 16.824 67.48 16.96 67.064 16.96H60.584L60.8 16.672V21.496L60.632 21.184H65.984C66.4 21.184 66.744 21.32 67.016 21.592C67.304 21.848 67.448 22.184 67.448 22.6C67.448 22.952 67.304 23.264 67.016 23.536C66.744 23.808 66.4 23.944 65.984 23.944H60.584L60.8 23.728V29.536C60.8 29.952 60.648 30.304 60.344 30.592C60.056 30.864 59.712 31 59.312 31ZM73.0046 31C72.5566 31 72.1566 30.864 71.8046 30.592C71.4526 30.304 71.2766 29.952 71.2766 29.536V15.664C71.2766 15.248 71.4126 14.904 71.6846 14.632C71.9726 14.344 72.3246 14.2 72.7406 14.2H79.6526C80.4846 14.2 81.2606 14.424 81.9806 14.872C82.7166 15.304 83.3086 15.912 83.7566 16.696C84.2046 17.464 84.4286 18.352 84.4286 19.36C84.4286 19.968 84.3006 20.56 84.0446 21.136C83.8046 21.712 83.4686 22.232 83.0366 22.696C82.6206 23.16 82.1486 23.52 81.6206 23.776L81.6446 23.224C82.0926 23.464 82.4606 23.752 82.7486 24.088C83.0526 24.408 83.2846 24.76 83.4446 25.144C83.6206 25.512 83.7246 25.912 83.7566 26.344C83.8206 26.744 83.8606 27.096 83.8766 27.4C83.9086 27.704 83.9566 27.96 84.0206 28.168C84.1006 28.376 84.2446 28.536 84.4526 28.648C84.8046 28.856 85.0206 29.16 85.1006 29.56C85.1966 29.944 85.1086 30.288 84.8366 30.592C84.6606 30.8 84.4366 30.936 84.1646 31C83.8926 31.048 83.6206 31.048 83.3486 31C83.0766 30.936 82.8526 30.856 82.6766 30.76C82.4046 30.6 82.1326 30.368 81.8606 30.064C81.5886 29.744 81.3646 29.32 81.1886 28.792C81.0286 28.264 80.9486 27.584 80.9486 26.752C80.9486 26.48 80.9006 26.232 80.8046 26.008C80.7086 25.768 80.5726 25.568 80.3966 25.408C80.2206 25.232 79.9966 25.104 79.7246 25.024C79.4526 24.928 79.1326 24.88 78.7646 24.88H73.9166L74.2766 24.328V29.536C74.2766 29.952 74.1646 30.304 73.9406 30.592C73.7166 30.864 73.4046 31 73.0046 31ZM73.9406 22.408H79.5326C79.8206 22.408 80.1006 22.28 80.3726 22.024C80.6446 21.752 80.8686 21.392 81.0446 20.944C81.2206 20.48 81.3086 19.976 81.3086 19.432C81.3086 18.728 81.1166 18.144 80.7326 17.68C80.3646 17.2 79.9646 16.96 79.5326 16.96H73.9886L74.2766 16.192V22.984L73.9406 22.408ZM93.9211 17.968L88.7371 30.16C88.6251 30.464 88.4491 30.704 88.2091 30.88C87.9851 31.04 87.7371 31.12 87.4651 31.12C87.0331 31.12 86.7131 31 86.5051 30.76C86.2971 30.52 86.1931 30.224 86.1931 29.872C86.1931 29.728 86.2171 29.576 86.2651 29.416L92.2411 15.064C92.3691 14.744 92.5611 14.496 92.8171 14.32C93.0891 14.144 93.3771 14.072 93.6811 14.104C93.9691 14.104 94.2331 14.192 94.4731 14.368C94.7291 14.528 94.9131 14.76 95.0251 15.064L100.929 29.128C101.009 29.336 101.049 29.528 101.049 29.704C101.049 30.136 100.905 30.48 100.617 30.736C100.345 30.992 100.041 31.12 99.7051 31.12C99.4171 31.12 99.1531 31.032 98.9131 30.856C98.6891 30.68 98.5131 30.44 98.3851 30.136L93.2251 18.112L93.9211 17.968ZM89.4811 27.232L90.8011 24.472H97.2811L97.7371 27.232H89.4811ZM108.481 31.24C107.361 31.24 106.353 31.104 105.457 30.832C104.561 30.544 103.705 30.048 102.889 29.344C102.681 29.168 102.521 28.968 102.409 28.744C102.297 28.52 102.241 28.296 102.241 28.072C102.241 27.704 102.369 27.384 102.625 27.112C102.897 26.824 103.233 26.68 103.633 26.68C103.937 26.68 104.209 26.776 104.449 26.968C105.057 27.464 105.657 27.84 106.249 28.096C106.857 28.352 107.601 28.48 108.481 28.48C109.073 28.48 109.617 28.392 110.113 28.216C110.609 28.024 111.009 27.776 111.313 27.472C111.617 27.152 111.769 26.792 111.769 26.392C111.769 25.912 111.625 25.504 111.337 25.168C111.049 24.832 110.609 24.552 110.017 24.328C109.425 24.088 108.673 23.904 107.761 23.776C106.897 23.648 106.137 23.456 105.481 23.2C104.825 22.928 104.273 22.592 103.825 22.192C103.393 21.776 103.065 21.296 102.841 20.752C102.617 20.192 102.505 19.568 102.505 18.88C102.505 17.84 102.769 16.952 103.297 16.216C103.841 15.48 104.569 14.92 105.481 14.536C106.393 14.152 107.401 13.96 108.505 13.96C109.545 13.96 110.505 14.12 111.385 14.44C112.281 14.744 113.009 15.136 113.569 15.616C114.033 15.984 114.265 16.408 114.265 16.888C114.265 17.24 114.129 17.56 113.857 17.848C113.585 18.136 113.265 18.28 112.897 18.28C112.657 18.28 112.441 18.208 112.249 18.064C111.993 17.84 111.649 17.632 111.217 17.44C110.785 17.232 110.329 17.064 109.849 16.936C109.369 16.792 108.921 16.72 108.505 16.72C107.817 16.72 107.233 16.808 106.753 16.984C106.289 17.16 105.937 17.4 105.697 17.704C105.457 18.008 105.337 18.36 105.337 18.76C105.337 19.24 105.473 19.64 105.745 19.96C106.033 20.264 106.441 20.512 106.969 20.704C107.497 20.88 108.129 21.04 108.865 21.184C109.825 21.36 110.665 21.568 111.385 21.808C112.121 22.048 112.729 22.36 113.209 22.744C113.689 23.112 114.049 23.584 114.289 24.16C114.529 24.72 114.649 25.408 114.649 26.224C114.649 27.264 114.361 28.16 113.785 28.912C113.209 29.664 112.449 30.24 111.505 30.64C110.577 31.04 109.569 31.24 108.481 31.24Z" fill="#3F3844"/>
<g clip-path="url(#clip0_32_74)">
<path d="M14.6667 41.25C14.6667 42.7698 13.4347 44 11.9167 44H10.0833C4.52467 44 0 39.4772 0 33.9167V32.0833C0 30.5635 1.232 29.3333 2.75 29.3333C4.268 29.3333 5.5 30.5635 5.5 32.0833V33.9167C5.5 36.443 7.55517 38.5 10.0833 38.5H11.9167C13.4347 38.5 14.6667 39.7302 14.6667 41.25ZM41.25 29.3333C39.732 29.3333 38.5 30.5635 38.5 32.0833V33.9167C38.5 36.443 36.4448 38.5 33.9167 38.5H32.0833C30.5653 38.5 29.3333 39.7302 29.3333 41.25C29.3333 42.7698 30.5653 44 32.0833 44H33.9167C39.4753 44 44 39.4772 44 33.9167V32.0833C44 30.5635 42.768 29.3333 41.25 29.3333ZM33.9167 0H32.0833C30.5653 0 29.3333 1.23017 29.3333 2.75C29.3333 4.26983 30.5653 5.5 32.0833 5.5H33.9167C36.4448 5.5 38.5 7.557 38.5 10.0833V11.9167C38.5 13.4365 39.732 14.6667 41.25 14.6667C42.768 14.6667 44 13.4365 44 11.9167V10.0833C44 4.52283 39.4753 0 33.9167 0ZM2.75 14.6667C4.268 14.6667 5.5 13.4365 5.5 11.9167V10.0833C5.5 7.557 7.55517 5.5 10.0833 5.5H11.9167C13.4347 5.5 14.6667 4.26983 14.6667 2.75C14.6667 1.23017 13.4347 0 11.9167 0H10.0833C4.52467 0 0 4.52283 0 10.0833V11.9167C0 13.4365 1.232 14.6667 2.75 14.6667ZM22 34.8333C14.9123 34.8333 9.16667 29.0877 9.16667 22C9.16667 14.9123 14.9123 9.16667 22 9.16667C29.0877 9.16667 34.8333 14.9123 34.8333 22C34.8333 29.0877 29.0877 34.8333 22 34.8333ZM17.4167 22C18.9347 22 20.1667 20.768 20.1667 19.25C20.1667 17.732 18.9347 16.5 17.4167 16.5C15.8987 16.5 14.6667 17.732 14.6667 19.25C14.6667 20.768 15.8987 22 17.4167 22ZM27.4047 25.5218C26.9023 24.7665 25.9307 24.5025 25.1038 24.8783C24.244 25.2688 23.0982 25.6667 22 25.6667C20.9403 25.6667 19.7798 25.2762 18.8778 24.8692C18.0547 24.4988 17.0922 24.7702 16.5935 25.5218C15.9665 26.466 16.3277 27.7438 17.358 28.2113C18.5772 28.765 20.2547 29.3333 22.0018 29.3333C23.749 29.3333 25.4247 28.765 26.6438 28.2113C27.6742 27.7438 28.0335 26.4642 27.4065 25.5218H27.4047ZM29.3333 19.25C29.3333 17.732 28.1013 16.5 26.5833 16.5C25.0653 16.5 23.8333 17.732 23.8333 19.25C23.8333 20.768 25.0653 22 26.5833 22C28.1013 22 29.3333 20.768 29.3333 19.25Z" fill="#3F3844"/>
</g>
<defs>
<clipPath id="clip0_32_74">
<rect width="44" height="44" fill="white"/>
</clipPath>
</defs>
</svg>
