<svg width="156" height="40" viewBox="0 0 156 40" fill="none" xmlns="http://www.w3.org/2000/svg">
<path fill-rule="evenodd" clip-rule="evenodd" d="M14.2654 5.87803L0 20C2.85335 22.8247 6.11285 25.2053 9.66664 27.0677C10.6489 29.6472 12.1886 32.0662 14.2857 34.1422C22.1756 41.9526 34.9675 41.9526 42.8572 34.1422C44.9543 32.0662 46.494 29.6472 47.4763 27.0676C51.0301 25.2053 54.2896 22.8247 57.1429 20L42.889 5.88952C42.8785 5.87896 42.8679 5.8684 42.8572 5.85786C34.9675 -1.95262 22.1756 -1.95262 14.2857 5.85786C14.279 5.86459 14.2722 5.8713 14.2654 5.87803ZM41.4922 29.6156C37.335 31.0045 32.971 31.7157 28.5715 31.7157C24.1719 31.7157 19.808 31.0045 15.6509 29.6156C16.1013 30.2072 16.5986 30.7749 17.1429 31.3137C23.4547 37.5622 33.6882 37.5622 40 31.3137C40.5443 30.7749 41.0418 30.2072 41.4922 29.6156ZM17.4359 8.40343C18.5077 9.10445 19.6474 9.70432 20.84 10.1934C23.2912 11.1985 25.9183 11.7158 28.5715 11.7158C31.2246 11.7158 33.8517 11.1985 36.3029 10.1934C37.4955 9.70432 38.6352 9.10443 39.7072 8.40341C33.474 2.53219 23.6689 2.5322 17.4359 8.40343Z" fill="#3F3844"/>
<path d="M81.2149 15.92C81.6309 15.92 81.9749 16.056 82.2469 16.328C82.5189 16.6 82.6549 16.952 82.6549 17.384V27.536C82.6549 27.952 82.5189 28.304 82.2469 28.592C81.9749 28.864 81.6309 29 81.2149 29C80.7989 29 80.4549 28.864 80.1829 28.592C79.9109 28.304 79.7749 27.952 79.7749 27.536V26.36L80.3029 26.576C80.3029 26.784 80.1909 27.04 79.9669 27.344C79.7429 27.632 79.4389 27.92 79.0549 28.208C78.6709 28.496 78.2149 28.744 77.6869 28.952C77.1749 29.144 76.6149 29.24 76.0069 29.24C74.9029 29.24 73.9029 28.96 73.0069 28.4C72.1109 27.824 71.3989 27.04 70.8709 26.048C70.3589 25.04 70.1029 23.888 70.1029 22.592C70.1029 21.28 70.3589 20.128 70.8709 19.136C71.3989 18.128 72.1029 17.344 72.9829 16.784C73.8629 16.208 74.8389 15.92 75.9109 15.92C76.5989 15.92 77.2309 16.024 77.8069 16.232C78.3829 16.44 78.8789 16.704 79.2949 17.024C79.7269 17.344 80.0549 17.672 80.2789 18.008C80.5189 18.328 80.6389 18.6 80.6389 18.824L79.7749 19.136V17.384C79.7749 16.968 79.9109 16.624 80.1829 16.352C80.4549 16.064 80.7989 15.92 81.2149 15.92ZM76.3669 26.6C77.0709 26.6 77.6869 26.424 78.2149 26.072C78.7429 25.72 79.1509 25.24 79.4389 24.632C79.7429 24.024 79.8949 23.344 79.8949 22.592C79.8949 21.824 79.7429 21.136 79.4389 20.528C79.1509 19.92 78.7429 19.44 78.2149 19.088C77.6869 18.736 77.0709 18.56 76.3669 18.56C75.6789 18.56 75.0709 18.736 74.5429 19.088C74.0149 19.44 73.5989 19.92 73.2949 20.528C73.0069 21.136 72.8629 21.824 72.8629 22.592C72.8629 23.344 73.0069 24.024 73.2949 24.632C73.5989 25.24 74.0149 25.72 74.5429 26.072C75.0709 26.424 75.6789 26.6 76.3669 26.6ZM85.9173 16.4H91.6053C91.9893 16.4 92.3093 16.528 92.5653 16.784C92.8213 17.04 92.9493 17.36 92.9493 17.744C92.9493 18.112 92.8213 18.424 92.5653 18.68C92.3093 18.92 91.9893 19.04 91.6053 19.04H85.9173C85.5333 19.04 85.2133 18.912 84.9573 18.656C84.7013 18.4 84.5733 18.08 84.5733 17.696C84.5733 17.328 84.7013 17.024 84.9573 16.784C85.2133 16.528 85.5333 16.4 85.9173 16.4ZM88.4853 13.4C88.9013 13.4 89.2373 13.544 89.4933 13.832C89.7653 14.104 89.9013 14.448 89.9013 14.864V25.544C89.9013 25.768 89.9413 25.952 90.0213 26.096C90.1173 26.24 90.2373 26.344 90.3813 26.408C90.5413 26.472 90.7093 26.504 90.8853 26.504C91.0773 26.504 91.2533 26.472 91.4133 26.408C91.5733 26.328 91.7573 26.288 91.9653 26.288C92.1893 26.288 92.3893 26.392 92.5653 26.6C92.7573 26.808 92.8533 27.096 92.8533 27.464C92.8533 27.912 92.6053 28.28 92.1093 28.568C91.6293 28.856 91.1093 29 90.5493 29C90.2133 29 89.8373 28.976 89.4213 28.928C89.0213 28.864 88.6373 28.728 88.2693 28.52C87.9173 28.296 87.6213 27.96 87.3813 27.512C87.1413 27.064 87.0213 26.448 87.0213 25.664V14.864C87.0213 14.448 87.1573 14.104 87.4293 13.832C87.7173 13.544 88.0693 13.4 88.4853 13.4ZM108.098 12.152C108.498 12.152 108.842 12.288 109.13 12.56C109.434 12.816 109.586 13.144 109.586 13.544C109.586 13.752 109.538 13.968 109.442 14.192L103.514 28.064C103.37 28.384 103.162 28.624 102.89 28.784C102.634 28.928 102.37 29 102.098 29C101.842 28.984 101.594 28.904 101.354 28.76C101.114 28.6 100.93 28.376 100.802 28.088L94.8736 14.168C94.8256 14.072 94.7936 13.976 94.7776 13.88C94.7616 13.768 94.7536 13.664 94.7536 13.568C94.7536 13.104 94.9216 12.752 95.2576 12.512C95.5936 12.256 95.9136 12.128 96.2176 12.128C96.8256 12.128 97.2656 12.44 97.5376 13.064L102.794 25.424L101.954 25.448L106.778 13.064C107.05 12.456 107.49 12.152 108.098 12.152ZM122.067 15.92C122.483 15.92 122.827 16.056 123.099 16.328C123.371 16.6 123.507 16.952 123.507 17.384V27.536C123.507 27.952 123.371 28.304 123.099 28.592C122.827 28.864 122.483 29 122.067 29C121.651 29 121.307 28.864 121.035 28.592C120.763 28.304 120.627 27.952 120.627 27.536V26.36L121.155 26.576C121.155 26.784 121.043 27.04 120.819 27.344C120.595 27.632 120.291 27.92 119.907 28.208C119.523 28.496 119.067 28.744 118.539 28.952C118.027 29.144 117.467 29.24 116.859 29.24C115.755 29.24 114.755 28.96 113.859 28.4C112.963 27.824 112.251 27.04 111.723 26.048C111.211 25.04 110.955 23.888 110.955 22.592C110.955 21.28 111.211 20.128 111.723 19.136C112.251 18.128 112.955 17.344 113.835 16.784C114.715 16.208 115.691 15.92 116.763 15.92C117.451 15.92 118.083 16.024 118.659 16.232C119.235 16.44 119.731 16.704 120.147 17.024C120.579 17.344 120.907 17.672 121.131 18.008C121.371 18.328 121.491 18.6 121.491 18.824L120.627 19.136V17.384C120.627 16.968 120.763 16.624 121.035 16.352C121.307 16.064 121.651 15.92 122.067 15.92ZM117.219 26.6C117.923 26.6 118.539 26.424 119.067 26.072C119.595 25.72 120.003 25.24 120.291 24.632C120.595 24.024 120.747 23.344 120.747 22.592C120.747 21.824 120.595 21.136 120.291 20.528C120.003 19.92 119.595 19.44 119.067 19.088C118.539 18.736 117.923 18.56 117.219 18.56C116.531 18.56 115.923 18.736 115.395 19.088C114.867 19.44 114.451 19.92 114.147 20.528C113.859 21.136 113.715 21.824 113.715 22.592C113.715 23.344 113.859 24.024 114.147 24.632C114.451 25.24 114.867 25.72 115.395 26.072C115.923 26.424 116.531 26.6 117.219 26.6ZM135.918 16.16C136.334 16.16 136.678 16.304 136.95 16.592C137.222 16.864 137.358 17.208 137.358 17.624V23.72C137.358 25.416 136.886 26.76 135.942 27.752C134.998 28.744 133.638 29.24 131.862 29.24C130.086 29.24 128.726 28.744 127.782 27.752C126.854 26.76 126.39 25.416 126.39 23.72V17.624C126.39 17.208 126.526 16.864 126.798 16.592C127.07 16.304 127.414 16.16 127.83 16.16C128.246 16.16 128.59 16.304 128.862 16.592C129.134 16.864 129.27 17.208 129.27 17.624V23.72C129.27 24.696 129.486 25.424 129.918 25.904C130.35 26.368 130.998 26.6 131.862 26.6C132.742 26.6 133.398 26.368 133.83 25.904C134.262 25.424 134.478 24.696 134.478 23.72V17.624C134.478 17.208 134.614 16.864 134.886 16.592C135.158 16.304 135.502 16.16 135.918 16.16ZM143.596 27.536C143.596 27.952 143.452 28.304 143.164 28.592C142.892 28.864 142.548 29 142.132 29C141.732 29 141.396 28.864 141.124 28.592C140.852 28.304 140.716 27.952 140.716 27.536V12.704C140.716 12.288 140.852 11.944 141.124 11.672C141.412 11.384 141.764 11.24 142.18 11.24C142.596 11.24 142.932 11.384 143.188 11.672C143.46 11.944 143.596 12.288 143.596 12.704V27.536ZM147.019 16.4H152.707C153.091 16.4 153.411 16.528 153.667 16.784C153.923 17.04 154.051 17.36 154.051 17.744C154.051 18.112 153.923 18.424 153.667 18.68C153.411 18.92 153.091 19.04 152.707 19.04H147.019C146.635 19.04 146.315 18.912 146.059 18.656C145.803 18.4 145.675 18.08 145.675 17.696C145.675 17.328 145.803 17.024 146.059 16.784C146.315 16.528 146.635 16.4 147.019 16.4ZM149.587 13.4C150.003 13.4 150.339 13.544 150.595 13.832C150.867 14.104 151.003 14.448 151.003 14.864V25.544C151.003 25.768 151.043 25.952 151.123 26.096C151.219 26.24 151.339 26.344 151.483 26.408C151.643 26.472 151.811 26.504 151.987 26.504C152.179 26.504 152.355 26.472 152.515 26.408C152.675 26.328 152.859 26.288 153.067 26.288C153.291 26.288 153.491 26.392 153.667 26.6C153.859 26.808 153.955 27.096 153.955 27.464C153.955 27.912 153.707 28.28 153.211 28.568C152.731 28.856 152.211 29 151.651 29C151.315 29 150.939 28.976 150.523 28.928C150.123 28.864 149.739 28.728 149.371 28.52C149.019 28.296 148.723 27.96 148.483 27.512C148.243 27.064 148.123 26.448 148.123 25.664V14.864C148.123 14.448 148.259 14.104 148.531 13.832C148.819 13.544 149.171 13.4 149.587 13.4Z" fill="#3F3844"/>
</svg>
