<?xml version="1.0" encoding="UTF-8"?>
<svg version="1.1" viewBox="0 0 1080 1080" width="1280" height="1280" xmlns="http://www.w3.org/2000/svg">
<path transform="translate(0)" d="m0 0h1080v1080h-1080z" fill="#FEFEFE"/>
<path transform="translate(367,180)" d="m0 0h12l12 16 12 17 52 72 3 7 30 175v8l-3 8-7 7-7 3h-11l-10-5-6-9-5-27-21-123v-5h-3l-1 9-24 141-4 10-8 7-5 2h-11l-10-5-6-9-1-3v-11l30-175-2-11-12-51-4 9-4 15-2 19v13l1 15v13l-4 6-7 4h-7l-6-3-4-4-2-7-1-10v-39l3-19 5-16 4-9 6-11 8-10 10-9z"/>
<path transform="translate(392,180)" d="m0 0h74l43 15 45 15 41 14 10 4 6 5 7-2h16l9 4 5 5 3 6 1 4v11l-4 12-3 5-2-3-3-21-4-7-5-3-7-1-9 3-4 5-2 5v12l3 16 5 13 6 10 3 3-1 5-10 24-1 4 10 9 8 7 11 11 13 17 9 15 8 17 5 15 4 22v23l-4 9-8 6-3 1h-12l-8-5-4-5-2-4-2-27-5-19-8-16-9-14-8-9h-1l-4 15-8 18-7 12-10 13-9 10-14 14-17 13-7 3h-9l-8-4-6-7-2-5v-10l4-8 8-7 9-7 12-11 11-13 8-13 6-16 2-8v-19l-7-6-4-8-1-4v-17l6-24 8-21 9-17 9-13v-2l-47-16-66-23-2 12-11 47h-3l-13-19-12-16-12-17-26-36-3-4z"/>
<path transform="translate(673,168)" d="m0 0h15l11 4 10 9 6 9 2 6 1 12-3 12-6 9-7 7-11 5-4 1h-14l-11-4-10-8-6-9-3-10v-12l4-11 6-9 8-6 8-4z"/>
<path transform="translate(380,111)" d="m0 0h74l15 15v1h-16l1 4-1 13-4 10-8 10-10 6-7 2h-14l-10-3-9-6-7-8-4-10-1-4v-12z"/>
<path transform="translate(673,281)" d="m0 0 26 7 40 12-4 16-14 47-1 3-7-1-58-17-1-4 4-14 1-1h23l17-3 7-6 2-6-1-9-4-6-6-3h-11l-17 1 1-8z"/>
<path transform="translate(621,246)" d="m0 0h8l6 4 3 5 2 18 4 11 6 8 8 5 7 2h16l14-1 6 3 4 6v9l-6 7-12 3h-25l-12-3-14-7-9-8-8-12-5-13-2-10v-19l6-7z"/>
<path transform="translate(581,510)" d="m0 0h19l7 3 7 8 3 8v14l-4 11-7 7-7 2h-18v-39h-3l2-12z"/>
<path transform="translate(692,101)" d="m0 0 4 1 6 27 9-6 16-12 4 1-2 12-4 17 13-1 15-2h5l1 4-24 24 5 1 19 8-1 5-23 8-5-1 1-4 15-5h3v-2l-5-1-15-6-1-5 12-11 8-8-28 3-1-1 1-10 3-13v-3l-20 15-4 1-3-8-4-16-12 26-4 2-14-11 1 18-4 1-1-1-3-26 3-2 13 10 5 3 13-27z"/>
<path transform="translate(527,524)" d="m0 0 10 1 1-1h12v44l-5 6-6 2h-10l-10-2 1-10 1-2 8 2h7v-6l-1 2h-8l-6-3-3-5-1-4v-9l3-9 5-5z"/>
<path transform="translate(345,522)" d="m0 0 1 2h8l1 6 2-7 9 1h4 1l2 9 2 8v7l-3 9-5 5-3 1h-9l-1 13h-13v-39l-3-1 3-12 2-1 2 1z"/>
<path transform="translate(250,508)" d="m0 0 11 2 1 2-3 12h-3l-6-2h-6l2 5 11 6 5 6 1 4v7l-4 8-5 4-6 2h-7l-11-4-1-5 3-9 9 3h5l1-3-3-3-11-6-4-5-1-3v-9l5-8 7-3h7l3 1z"/>
<path transform="translate(267,509)" d="m0 0h14l1 19 1-4h7l6 3 2 4v19h3l-2 11-1 2h-13l-1-24-3-2v26h-13v-41h-3l1-8z"/>
<path transform="translate(458,87)" d="m0 0h7l-8 14-4 6h-73v-12z"/>
<path transform="translate(322,522)" d="m0 0 1 2 5 1h3l3 7 2 5v13l-4 8-6 5-9 1-7-3-5-6-2-6v-11l4-9 7-5 7-1z"/>
<path transform="translate(818,524)" d="m0 0h13l1 6 2-6h7l5 3 3 5v18h2l-1 10-1 3h-13l-1-24-4-2v26h-13v-26l-3-1z"/>
<path transform="translate(791,524)" d="m0 0h11l6 4 4 6 1 3v13l-4 8-6 5-9 1-7-3-5-6-2-6v-11l4-9z"/>
<path transform="translate(482,524)" d="m0 0h13l1 5 2-5h7l5 3 2 3v20h3l-1 8-1 5h-13l-1-22-1-3-3-1v26h-13v-26h-3l2-11z"/>
<path transform="translate(402,508)" d="m0 0h12v11l4-1 3-7 3-2h13l-1 9-2 4h-2v2h5l-1 9-1 4h-3v26h-13v-26h-4l1-8 3-9h-6l-1 1h-13l-3-1v-5h3z"/>
<path transform="translate(632,524)" d="m0 0h10l6 4 4 9 1 9-1 1h-18l3 4h14l-2 11-5 2h-8l-8-3-5-6-3-8v-8l3-8 6-6z"/>
<path transform="translate(689,524)" d="m0 0h11l6 5 4 10v8l-18 1 3 3h14l-3 12-5 1h-7l-8-3-6-7-2-5v-12l4-8 5-4z"/>
<path transform="translate(379,509)" d="m0 0h13v6l2 1h-2l1 12-1 22h3l-2 12-1 1h-13v-41h-2l-1-3z"/>
<path transform="translate(752,516)" d="m0 0h2v8h5l-2 12-3 1v26h-13v-26h-4l1-9 3-9z"/>
<path transform="translate(452,516)" d="m0 0h2v8h5l-1 9-1 4h-3v26h-13v-26h-4l2-12 2-6z"/>
<path transform="translate(670,516)" d="m0 0h1v8h5l-1 10-1 3h-3v26h-13v-26h-4l4-18z"/>
<path transform="translate(723,524)" d="m0 0h11l1 5-2 8-5 1-1 2v8l1 2h5l2 9v4l-9 1-6-3-5-6-2-5v-13l3-7z"/>
<path transform="translate(406,523)" d="m0 0 6 1v26h3l-2 11-1 2h-13v-26l-3-1 1-7-1-4 1-1z" fill="#010101"/>
<path transform="translate(762,524)" d="m0 0h13v26h3l-2 11-1 2h-13v-26l-3-1z"/>
<path transform="translate(463,524)" d="m0 0h12v26h3l-2 12-1 1h-13v-26h-2l1-9z"/>
<path transform="translate(402,508)" d="m0 0h12v11l2 1-4 1h-13l-3-1v-5h3z" fill="#080808"/>
<path transform="translate(465,508)" d="m0 0h12l-1 10-1 3h-13l2-12z"/>
<path transform="translate(765,508)" d="m0 0h12l-1 8-1 5h-13l1-9z"/>
<path transform="translate(595,524)" d="m0 0 5 2 2 4v12l-3 5-4 2z" fill="#fff"/>
<path transform="translate(795,537)" d="m0 0h4l1 2v10l-1 2-5-1-1-1v-10z" fill="#fff"/>
<path transform="translate(318,537)" d="m0 0h4l1 2v10l-1 2-5-1-1-1v-10z" fill="#fff"/>
<path transform="translate(354,537)" d="m0 0 5 1 2 2v9l-2 2-4-1-1-1z" fill="#fff"/>
<path transform="translate(534,536)" d="m0 0 3 2v11l-6-2v-9z" fill="#fff"/>
<path transform="translate(635,534)" d="m0 0h4l1 5h-7z" fill="#fff"/>
<path transform="translate(692,534)" d="m0 0 5 1 1 4h-7z" fill="#fff"/>
</svg>
